<?xml version="1.0" encoding="UTF-8"?>
<svg id="Layer_1" data-name="Layer 1" xmlns="http://www.w3.org/2000/svg" viewBox="0 0 353.54 353.54">
  <defs>
    <style>
      .cls-1 {
        fill: #f36c36;
      }

      .cls-2 {
        fill: #231f20;
      }
    </style>
  </defs>
  <path class="cls-2" d="M201.31,123.89c2.74-1.34,5.29-2.57,7.61-3.65,.33,2.81,.64,5.62,.93,8.43-2.85-1.63-5.7-3.24-8.54-4.79m50.52,31.95c-6.1-4.53-12.17-8.67-18.21-12.63-.8-12.82-1.79-26.06-2.73-31.33-.03-.2-.07-.4-.1-.59,19.3-7.05,43.63-14.08,58.38-13.87,20.23,.29,26.65,7.12,24.79,17.39-1.85,10.26-14.82,28.93-32.06,43.74,1.28,11.4,.71,14.39,.71,14.39,0,0,23.23-18.67,38.76-42.61,15.53-23.94,14.53-36.91,3.71-48.02-10.83-11.12-46.51-9.78-83.08,1.85-4.91,1.46-9.83,3.1-14.73,4.83-.01-.08-.02-.13-.02-.13,0,0-6.38-32.06-15.99-54.51C201.63,11.92,189.42-1.26,173.6,.1c-14.18,1.36-23.65,17.88-30.57,32.06-6.91,14.18-14.18,40.36-15.68,50.51l12.18-5.56s5.2-24.15,12.96-37.91c7.77-13.75,16.25-16.89,20.66-15.53,4.42,1.35,12.65,5.77,21.41,27.89,4.08,10.32,8,27.05,11.09,45.8-10.54,4.43-20.55,9.07-29.46,13.46-6.4-3.21-12.75-6.34-19.01-9.42-30.07-14.82-71.75-24.72-94.51-26.22-22.77-1.5-38.26,5.02-41.36,18.7-3.1,13.68,6.94,31.53,15.71,43.5,8.76,11.97,24.47,27.68,33.13,35.27,.21-4.6,1.82-13.36,1.82-13.36,0,0-10.83-8.73-21.38-22.83-10.54-14.11-12.68-23.66-10.12-30.92,8.41-13.83,39.76-9.83,71.96,2.28,13.7,5.15,26.97,10.77,38.69,16.06-19.5,10.88-45.71,27.48-72.46,49.63-30.64,25.37-63.98,62.95-57.46,85.82,6.52,22.87,35.16,20.73,58.14,17.74,22.98-2.99,40.22-10.51,40.22-10.51l-10.12-7.84s-43.6,13.68-57.14,5.41c-13.54-8.26-4.56-25.51,5.56-38.62,10.11-13.11,36.48-37.9,67.12-58.14,16.69-11.03,35.52-21.97,52.22-31.02,3.97,2.03,7.37,3.83,9.98,5.3,4.95,2.77,14.04,8.26,24.67,15.12,.09,2.19,.15,4.36,.19,6.47,.71,38.05-4.67,84-8.19,105.81-3.53,21.8-16.67,61.45-32.06,61.02-15.39-.43-25.15-23.9-32.13-53.97l-12.33-5.7s2.92,23.65,15.89,52.15c12.97,28.5,28.36,33.7,40.54,29.85,12.18-3.85,29.5-25.65,40.61-73.74,11.12-48.09,11.12-103.02,10.9-105.8,0-.07-.01-.19-.02-.33,9.94,7,19.75,14.37,27.81,21.27,23.94,20.52,39.04,37.41,43.46,48.95,4.42,11.54,1.42,23.51-17.1,23.51-24.79,0-45.31-7.98-45.31-7.98,0,0-5.27,5.27-10.97,8.27,13.11,6.12,49.45,14.53,74.81,11.26,25.37-3.28,29.78-21.09,19.38-43.75-10.4-22.66-42.89-54.01-75.52-78.23"/>
  <path class="cls-1" d="M245.18,136.56c4.55,3.06,9.14,6.22,13.79,9.67,2.98,2.21,5.95,4.52,8.91,6.84-3.39-13.22-9.59-25.3-17.92-35.6-2.04,.64-4.1,1.27-6.11,1.95,.13,1.37,.26,2.8,.38,4.31,.33,3.97,.65,8.36,.95,12.84m1.62,59.43c-.57,12.74-1.76,29.53-4.11,47.57,9.34-9.18,16.75-20.3,21.62-32.7-2.84-2.57-5.84-5.22-9.02-7.95-2.61-2.24-5.5-4.56-8.49-6.92M108.25,119.03c-1.54-.58-3.07-1.11-4.6-1.65-8.27,10.21-14.45,22.18-17.87,35.28,13.75-10.51,27.02-19.55,39.06-27.07-5.42-2.23-10.96-4.44-16.59-6.56m68.03-21.53c5.06-2.43,10.39-4.9,15.96-7.36-.42-2.27-.87-4.45-1.31-6.62-4.62-.7-9.34-1.06-14.16-1.06-8.65,0-17.01,1.19-24.97,3.38,3.64,1.55,7.25,3.14,10.7,4.84,4.52,2.22,9.15,4.53,13.78,6.83m23.83,65.97c-8.14-5.15-14.97-9.25-18.74-11.35-1.14-.64-2.48-1.37-3.97-2.16-15.03,8.28-31.29,17.83-45.79,27.42-15.95,10.52-30.8,22.46-42.54,33.09,8.48,21.87,24.88,39.77,45.7,50.18l5.67,2.62c11.18,4.69,23.46,7.29,36.34,7.29,5.07,0,10.04-.41,14.89-1.18,.14-.75,.29-1.52,.4-2.22,3.22-19.85,8.12-61.4,8.11-96.86,0-2.3-.02-4.57-.06-6.81h0"/>
</svg>