<?xml version="1.0" encoding="UTF-8"?>
<svg id="Layer_1" data-name="Layer 1" xmlns="http://www.w3.org/2000/svg" viewBox="0 0 533.6 216.29">
  <defs>
    <style>
      .cls-1 {
        fill: #f36c36;
      }

      .cls-2 {
        fill: #231f20;
      }
    </style>
  </defs>
  <g>
    <path class="cls-1" d="M0,175.05H33.83v11.86h10.72v-11.86h33.73v-43.18H0v43.18Zm10.88-32.31h56.57v21.43H10.88v-21.43Z"/>
    <polygon class="cls-1" points="153.86 166.28 97.31 166.28 97.31 134.29 86.5 134.29 86.5 177.39 93.02 177.39 97.31 177.39 153.86 177.39 161.76 177.39 164.67 177.39 164.67 134.29 153.86 134.29 153.86 166.28"/>
    <polygon class="cls-1" points="282.49 145.1 316.05 145.1 316.05 177.22 326.9 177.22 326.9 145.1 360.51 145.1 360.51 134.18 282.49 134.18 282.49 145.1"/>
    <polygon class="cls-1" points="368.91 142.58 368.91 145.1 368.91 177.33 376.51 177.33 379.65 177.33 447.05 177.33 447.05 166.39 379.65 166.39 379.65 161.18 438.5 161.18 438.5 150.48 379.65 150.48 379.65 145.1 447.05 145.1 447.05 134.18 368.91 134.18 368.91 142.58"/>
    <polygon class="cls-1" points="455.43 134.18 455.43 145.1 522.66 145.1 522.66 152.87 455.43 152.87 455.43 161.18 455.43 164.07 455.43 177.33 466.2 177.33 466.2 164.07 512.31 164.07 512.31 177.33 523.08 177.33 523.08 164.07 525.83 164.07 533.6 164.07 533.6 145.1 533.6 142.41 533.6 134.18 455.43 134.18"/>
  </g>
  <path class="cls-2" d="M248.93,153.03c-1.95-1.45-3.89-2.77-5.83-4.04-.26-4.1-.57-8.34-.87-10.02-.01-.06-.02-.13-.03-.19,6.18-2.26,13.96-4.5,18.68-4.44,6.48,.09,8.53,2.28,7.93,5.56-.59,3.28-4.74,9.26-10.26,14,.41,3.65,.23,4.61,.23,4.61,0,0,7.43-5.97,12.4-13.63,4.97-7.66,4.65-11.81,1.19-15.37-3.47-3.56-14.88-3.13-26.58,.59-1.57,.47-3.15,.99-4.71,1.55,0-.03,0-.04,0-.04,0,0-2.04-10.26-5.12-17.44s-6.99-11.4-12.05-10.97c-4.54,.43-7.57,5.72-9.78,10.26-2.21,4.54-4.54,12.92-5.02,16.16l3.9-1.78s1.66-7.73,4.15-12.13c2.49-4.4,5.2-5.4,6.61-4.97,1.41,.43,4.05,1.85,6.85,8.93,1.31,3.3,2.56,8.66,3.55,14.66-3.37,1.42-6.58,2.9-9.43,4.31-2.05-1.03-4.08-2.03-6.08-3.01-9.62-4.74-22.96-7.91-30.24-8.39-7.28-.48-12.24,1.61-13.24,5.98s2.22,10.09,5.03,13.92c2.8,3.83,7.83,8.86,10.6,11.29,.07-1.47,.58-4.27,.58-4.27,0,0-3.47-2.79-6.84-7.31-3.37-4.51-4.06-7.57-3.24-9.89,2.69-4.42,12.72-3.15,23.03,.73,4.38,1.65,8.63,3.45,12.38,5.14-6.24,3.48-14.63,8.79-23.19,15.88-9.8,8.12-20.47,20.14-18.39,27.46,2.09,7.32,11.25,6.63,18.6,5.68s12.87-3.36,12.87-3.36l-3.24-2.51s-13.95,4.38-18.29,1.73c-4.33-2.64-1.46-8.16,1.78-12.36,3.24-4.2,11.67-12.13,21.48-18.6,5.34-3.53,11.37-7.03,16.71-9.93,1.27,.65,2.36,1.23,3.19,1.69,1.58,.89,4.49,2.64,7.9,4.84,.03,.7,.05,1.39,.06,2.07,.23,12.17-1.49,26.88-2.62,33.86-1.13,6.98-5.34,19.66-10.26,19.53-4.92-.14-8.05-7.65-10.28-17.27l-3.94-1.82s.93,7.57,5.08,16.69c4.15,9.12,9.07,10.78,12.97,9.55,3.9-1.23,9.44-8.21,13-23.6s3.56-32.97,3.49-33.86c0-.02,0-.06,0-.1,3.18,2.24,6.32,4.6,8.9,6.81,7.66,6.57,12.49,11.97,13.91,15.66,1.41,3.69,.46,7.52-5.47,7.52-7.93,0-14.5-2.55-14.5-2.55,0,0-1.69,1.69-3.51,2.64,4.2,1.96,15.82,4.65,23.94,3.6,8.12-1.05,9.53-6.75,6.2-14-3.33-7.25-13.73-17.28-24.17-25.03Zm-16.17-10.23c.87-.43,1.69-.82,2.43-1.17,.11,.9,.21,1.8,.3,2.7-.91-.52-1.83-1.04-2.73-1.53Z"/>
  <path class="cls-1" d="M232.37,155.47c-2.61-1.65-4.79-2.96-6-3.63-.36-.2-.79-.44-1.27-.69-4.81,2.65-10.01,5.71-14.65,8.77-5.1,3.37-9.86,7.19-13.61,10.59,2.71,7,7.96,12.73,14.62,16.06l1.81,.84c3.58,1.5,7.51,2.33,11.63,2.33,1.62,0,3.21-.13,4.77-.38,.04-.24,.09-.49,.13-.71,1.03-6.35,2.6-19.65,2.59-31,0-.74,0-1.46-.02-2.18,0,0,0,0,0,0Zm-7.62-21.11c1.62-.78,3.33-1.57,5.11-2.36-.14-.73-.28-1.42-.42-2.12-1.48-.22-2.99-.34-4.53-.34-2.77,0-5.44,.38-7.99,1.08,1.17,.5,2.32,1.01,3.42,1.55,1.45,.71,2.93,1.45,4.41,2.18Zm-21.77,6.89c-.49-.19-.98-.36-1.47-.53-2.65,3.27-4.62,7.1-5.72,11.29,4.4-3.36,8.65-6.26,12.5-8.66-1.73-.71-3.51-1.42-5.31-2.1Zm44.34,24.63c-.18,4.08-.56,9.45-1.31,15.22,2.99-2.94,5.36-6.5,6.92-10.46-.91-.82-1.87-1.67-2.89-2.54-.83-.72-1.76-1.46-2.72-2.21Zm-.52-19.02c1.46,.98,2.92,1.99,4.41,3.1,.95,.71,1.9,1.45,2.85,2.19-1.08-4.23-3.07-8.1-5.73-11.39-.65,.21-1.31,.41-1.96,.62,.04,.44,.08,.9,.12,1.38,.11,1.27,.21,2.68,.3,4.11Z"/>
  <g>
    <path class="cls-2" d="M215.03,58.43c3.16-4.2,5.33-8.52,6.14-12.81,.4-2.11,.6-4.2,.6-6.24,0-3.47-.59-6.83-1.86-9.93-1.9-4.66-5.34-8.73-10.31-11.72-1.71-1.03-3.61-1.92-5.67-2.7,1.72-1.9,3.28-3.6,4.63-5.07,1.91-2.07,3.42-3.69,4.46-4.79,.52-.55,.92-.97,1.19-1.26,.27-.28,.41-.43,.41-.43,.78-.82,.75-2.12-.06-2.9s-2.12-.75-2.9,.06h0s-4.72,4.94-12.04,13.04c-2.9-.75-6.07-1.29-9.57-1.58-2.98-.25-5.95-.37-8.9-.37-21.37,0-41.56,6.1-55.38,12.88-7.81,3.84-15.29,8.35-21.79,13.32-6.49,4.97-12.01,10.4-15.88,16.12-3.18,4.71-5.41,8.51-6.88,12.01-1.47,3.49-2.14,6.71-2.13,10.01,0,1.16,.08,2.33,.23,3.52,.51,4.18,2.26,7.68,4.55,10.34,2.3,2.66,5.12,4.5,7.93,5.49h.04s.04,.03,.04,.03c3.06,.93,5.87,1.24,8.26,1.24,4.78,0,7.87-1.24,8.04-1.31,1.05-.43,1.56-1.62,1.13-2.67-.43-1.05-1.62-1.56-2.67-1.13h0s0,0,0,0c-.16,.06-2.69,1.01-6.5,1-2.02,0-4.41-.26-7.02-1.05-2.09-.73-4.34-2.19-6.14-4.28-1.81-2.1-3.17-4.82-3.58-8.16-.13-1.05-.2-2.05-.2-3.02,0-2.76,.52-5.33,1.81-8.43,1.29-3.1,3.39-6.7,6.49-11.3,3.52-5.22,8.73-10.39,14.97-15.16,6.24-4.78,13.5-9.17,21.1-12.9,13.27-6.53,32.99-12.47,53.57-12.46,2.84,0,5.7,.11,8.56,.35,2.45,.2,4.7,.54,6.78,.97-2.01,2.25-4.17,4.68-6.44,7.28-6.34,7.24-17.08,21.01-27.97,35.16-7.42,9.64-14.9,19.45-21.04,27.42-4.47-.35-8.03-1.54-11.94-3.66h-.01s-.01-.01-.01-.01c-2.15-1.14-3.23-2.34-3.84-3.38-.6-1.05-.73-1.99-.74-2.68,0-.34,.03-.61,.06-.78l.04-.17v-.02s0,0,0,0c.32-1.07-.27-2.21-1.34-2.55-1.08-.34-2.23,.26-2.58,1.34-.05,.15-.29,.95-.29,2.18,0,1.25,.26,2.96,1.28,4.73,1.01,1.76,2.75,3.53,5.46,4.96h0s0,0,.01,0c0,0,0,0,0,0h0c3.5,1.91,7.01,3.2,10.96,3.82-1.7,2.2-3.27,4.22-4.66,5.97-6.77,8.6-13.34,17.46-18.64,25.18-2.65,3.86-4.98,7.44-6.87,10.57-1.89,3.14-3.34,5.81-4.23,7.97-.43,1.05,.06,2.25,1.11,2.68,1.05,.43,2.25-.06,2.68-1.11,.75-1.81,2.12-4.38,3.95-7.42,5.5-9.12,15.14-22.52,25.22-35.33,1.82-2.31,3.95-5.05,6.29-8.09,.3,0,.59,.02,.89,.02,5.81,0,12.73-1.12,22.13-3.33h.02c13.97-3.41,26.88-9.81,36.74-17.39,4.93-3.79,9.11-7.89,12.27-12.09Zm-49.98,25.49c-7.97,1.87-14,2.9-18.88,3.16,5.76-7.5,12.48-16.3,19.16-24.97,10.87-14.12,21.63-27.9,27.81-34.96,2.8-3.2,5.42-6.14,7.8-8.8,4.37,1.42,7.8,3.38,10.34,5.72,2.2,2.04,3.78,4.36,4.83,6.93,1.05,2.56,1.56,5.38,1.56,8.38,0,1.77-.18,3.61-.53,5.48-.65,3.46-2.49,7.27-5.39,11.1-4.33,5.76-10.99,11.56-19.07,16.49-8.08,4.94-17.59,9.02-27.63,11.46Z"/>
    <polygon class="cls-2" points="241.86 78.53 241.86 78.53 241.86 78.53 241.86 78.53"/>
    <path class="cls-2" d="M241.86,78.53c-.33-.08-.61-.09-.88-.09-.62,0-1.23,.09-1.94,.23-2.46,.48-6.14,1.62-10.18,3.04-4.03,1.41-8.39,3.08-12.01,4.59-1.91,.8-3.9,1.93-5.87,3.21,.32-.35,.64-.7,.94-1.03,1.73-1.87,3.27-3.5,4.39-4.66,.56-.58,1.01-1.04,1.31-1.36,.31-.32,.47-.49,.48-.49,.79-.81,.78-2.11-.02-2.9-.81-.79-2.11-.78-2.9,.02h0s-2.77,2.82-6.27,6.61c-3.48,3.77-7.67,8.49-10.67,12.48-.37,.36-.7,.74-1.01,1.15-1.11,1.45-2.09,3.17-2.11,3.21-.51,.89-.29,2.02,.52,2.64s1.96,.57,2.69-.15l.13-.12c.66-.63,3.76-3.56,7.66-6.73,3.89-3.17,8.65-6.57,12.32-8.09,4.04-1.69,9.07-3.6,13.45-5.08,2.18-.74,4.21-1.37,5.84-1.81,.69-.18,1.28-.33,1.8-.43-.74,.62-.97,1.7-.48,2.57,.55,.99,1.8,1.35,2.79,.8,.79-.45,1.34-1.04,1.83-1.75,.46-.71,.88-1.52,.9-2.64,0-.64-.2-1.44-.73-2.06-.53-.63-1.26-.99-1.97-1.15Z"/>
    <path class="cls-2" d="M422.96,84.68c-.32-1.09-1.46-1.71-2.55-1.39-1.03,.31-3.18,.7-5.74,.99-2.57,.29-5.61,.5-8.61,.5-2.56,0-5.09-.15-7.25-.5-1.47-.23-2.73-.58-3.72-.99-.05-.64-.15-1.26-.35-1.81-.25-.72-.61-1.34-1.01-1.88-.54-.73-1.22-1.18-1.89-1.48-.68-.3-1.37-.46-2.11-.46-.56,0-1.16,.08-1.84,.48-.33,.2-.67,.51-.92,.93-.19,.31-.28,.67-.32,1.01-.5-.89-1.59-1.29-2.56-.89h0c-.11,.04-2.45,1.02-5.4,3.15-1.73,1.25-3.67,2.92-5.47,5.04-.43,.19-.88,.4-1.43,.67-2.65,1.29-6.92,3.53-11.6,5.44-4.66,1.92-9.73,3.45-13.59,3.44-.13,0-.26,0-.38,0-.98-.03-1.69-.19-2.19-.4-.75-.33-1.1-.71-1.4-1.28-.29-.57-.45-1.39-.45-2.35,0-1.6,.45-3.51,.93-4.97,.24-.73,.48-1.35,.66-1.78,.09-.22,.16-.38,.21-.49l.06-.12v-.03s.01,0,.01,0c.37-.79,.21-1.73-.42-2.34-.62-.61-1.57-.76-2.35-.37,0,0-13.43,6.69-21.2,10.59,.05-.13,.1-.26,.16-.39,.87-2.13,1.92-4.54,2.77-6.54,.43-1,.8-1.9,1.08-2.63,.14-.37,.26-.7,.35-1,.05-.15,.09-.3,.12-.47,.03-.17,.07-.34,.07-.64-.01-.22,0-.51-.25-1.04-.13-.26-.38-.57-.74-.8-.36-.23-.79-.33-1.12-.33-.33,0-.45,.05-.58,.07-.23,.06-.4,.12-.6,.19-.71,.27-1.79,.74-3.18,1.39-4.15,1.95-10.9,5.37-15.39,8.07-2.4,1.44-5.12,3.14-7.61,4.7l4.04-6.37s.1-.02,.15-.04c1.05-.31,1.65-1.38,1.41-2.43l1.66-2.62c.61-.96,.32-2.23-.64-2.83-.96-.61-2.23-.32-2.83,.64h0s-2.32,3.67-2.32,3.67c-1.11,.22-2.56,.44-4.18,.63-2.57,.29-5.61,.5-8.61,.5-2.56,0-5.09-.15-7.25-.5-1.47-.23-2.73-.58-3.72-.99-.05-.64-.15-1.26-.35-1.81-.25-.72-.61-1.34-1.01-1.88-.54-.73-1.22-1.18-1.89-1.48-.68-.3-1.37-.46-2.11-.46-.56,0-1.16,.08-1.84,.48-.33,.2-.67,.51-.92,.93-.19,.31-.28,.67-.32,1.01-.5-.89-1.59-1.29-2.56-.89h0c-.11,.04-2.45,1.02-5.4,3.15-2.95,2.14-6.52,5.45-8.96,10.21-1.36,2.68-1.99,4.85-2,6.76,0,1.19,.27,2.28,.77,3.18,.38,.67,.88,1.23,1.41,1.65,.81,.64,1.69,.99,2.49,1.2,.81,.21,1.56,.27,2.2,.28,.58,0,1.1-.1,1.68-.25,1.98-.53,4.61-1.77,7.37-3.71,2.75-1.94,5.58-4.57,7.65-7.91,1.34-2.16,2.27-3.98,2.89-5.59,.1-.25,.17-.48,.25-.72,1.15,.38,2.38,.67,3.69,.89,2.47,.4,5.19,.56,7.91,.56,3.18,0,6.35-.21,9.07-.52,.28-.03,.53-.07,.8-.1l-6.94,10.95c-.52,.82-.4,1.88,.29,2.56,.69,.68,1.75,.79,2.56,.27,0,0,.55-.36,1.48-.95,2.79-1.79,9-5.74,13.78-8.62,3.13-1.88,7.59-4.23,11.33-6.08,1-.5,1.95-.96,2.81-1.37-.61,1.42-1.31,3.03-1.97,4.61-.61,1.44-1.18,2.85-1.62,4.09-.22,.62-.41,1.19-.56,1.72-.15,.53-.26,1-.3,1.53-.05,.74,.3,1.45,.91,1.86,.62,.41,1.4,.46,2.06,.12,2.42-1.22,8.81-4.42,14.6-7.31,2.39-1.19,4.64-2.32,6.5-3.25-.32,1.3-.56,2.73-.57,4.22,0,.92,.1,1.87,.35,2.8,.38,1.39,1.19,2.79,2.53,3.78,1.34,.99,3.08,1.51,5.15,1.56,.16,0,.32,0,.49,0,2.79,0,5.72-.58,8.65-1.44,4.39-1.29,8.77-3.21,12.39-4.93,.5-.24,.97-.47,1.44-.69-.89,2.04-1.34,3.79-1.34,5.35,0,1.19,.27,2.28,.77,3.18,.38,.67,.88,1.23,1.41,1.65,.81,.64,1.69,.99,2.49,1.2,.81,.21,1.56,.27,2.2,.28,.58,0,1.1-.1,1.68-.25,1.98-.53,4.61-1.77,7.37-3.71,2.75-1.94,5.58-4.57,7.65-7.91,1.34-2.16,2.27-3.98,2.89-5.59,.1-.25,.17-.48,.25-.72,1.15,.38,2.38,.67,3.69,.89,2.47,.4,5.19,.56,7.91,.56,3.18,0,6.35-.21,9.07-.52,2.73-.31,4.96-.7,6.44-1.13,1.09-.32,1.71-1.46,1.39-2.55Zm-154.81,2.32c-.49,1.27-1.31,2.89-2.55,4.91-1.92,3.11-4.84,5.67-7.54,7.4-1.35,.86-2.64,1.52-3.69,1.95-.52,.21-.98,.37-1.34,.46-.35,.1-.61,.12-.64,.12-.61,.01-1.49-.15-1.98-.48-.25-.16-.42-.32-.55-.56-.13-.23-.25-.57-.25-1.17,0-.95,.36-2.57,1.55-4.89,2.03-3.99,5.12-6.88,7.71-8.76,1.29-.94,2.46-1.62,3.29-2.06,.41-.22,.75-.38,.97-.48l.24-.11,.05-.02h0s0,0,0,0c.62-.26,1.04-.79,1.2-1.4,.07,.17,.14,.35,.22,.5,.4,.69,.94,1.28,1.67,1.93,.54,.48,1.2,.98,2,1.53-.1,.35-.21,.72-.37,1.14Zm1.27-.55s0,0,0,0c0,0,0,0,0,0h-.01Zm120.96,.23c-.49,1.27-1.31,2.89-2.55,4.91-1.92,3.11-4.84,5.67-7.54,7.4-1.35,.86-2.64,1.52-3.69,1.95-.52,.21-.98,.37-1.34,.46-.35,.1-.61,.12-.64,.12-.61,.01-1.49-.15-1.98-.48-.25-.16-.42-.32-.55-.56-.13-.23-.25-.57-.25-1.17,0-.95,.36-2.57,1.55-4.89,2.03-3.99,5.12-6.88,7.71-8.76,1.29-.94,2.46-1.62,3.29-2.06,.41-.22,.75-.38,.97-.48l.24-.11,.05-.02h0s0,0,0,0c.62-.26,1.04-.79,1.2-1.4,.07,.17,.14,.35,.22,.5,.4,.69,.94,1.28,1.67,1.93,.54,.48,1.2,.98,2,1.53-.1,.35-.21,.72-.37,1.14Zm1.27-.55s0,0,0,0c0,0,0,0,0,0h-.01Z"/>
  </g>
</svg>