<svg width="1498" height="323" viewBox="0 0 1498 323" fill="none" xmlns="http://www.w3.org/2000/svg">
<path d="M636.271 229.868H717.433V261.216H603.512V61.7593H636.271V229.868Z" fill="#0E2300"/>
<path d="M768.852 91.5397C764.947 95.4464 760.364 97.3881 755.033 97.3881C749.701 97.3881 745.118 95.4464 741.213 91.5397C737.308 87.6563 735.368 83.0477 735.368 77.7139C735.368 72.38 737.262 67.7948 741.073 63.888C744.861 60.0046 749.514 58.0396 755.033 58.0396C760.551 58.0396 765.181 59.9812 768.992 63.888C772.78 67.7948 774.698 72.38 774.698 77.7139C774.698 83.0477 772.757 87.6329 768.852 91.5397ZM739.67 261.216V118.747H770.419V261.216H739.67Z" fill="#0E2300"/>
<path d="M797.73 261.216V53.2205H828.478V261.216H797.73Z" fill="#0E2300"/>
<path d="M957.294 118.747H990.054L935.361 265.778C921.682 302.623 898.533 320.098 865.867 318.203V289.429C875.548 289.99 883.334 287.955 889.227 283.3C895.119 278.644 899.959 271.369 903.748 261.497L905.174 258.643L844.799 118.747H878.4L920.864 222.171L957.294 118.747Z" fill="#0E2300"/>
<path d="M1090.02 115.051C1109.56 115.051 1126.28 122.326 1140.15 136.854C1154.01 151.381 1160.94 169.091 1160.94 190.005C1160.94 210.919 1153.99 228.862 1140.15 243.296C1126.28 257.73 1109.59 264.959 1090.02 264.959C1068.36 264.959 1051.76 256.982 1040.19 241.027V318.25H1009.44V118.747H1040.19V139.263C1051.76 123.121 1068.39 115.051 1090.02 115.051ZM1053 222.616C1061.54 231.272 1072.27 235.576 1085.18 235.576C1098.08 235.576 1108.82 231.248 1117.35 222.616C1125.89 213.983 1130.16 203.105 1130.16 189.981C1130.16 176.857 1125.89 166.003 1117.35 157.347C1108.82 148.714 1098.08 144.387 1085.18 144.387C1072.27 144.387 1061.54 148.714 1053 157.347C1044.47 166.003 1040.19 176.857 1040.19 189.981C1040.19 203.105 1044.47 213.96 1053 222.616Z" fill="#0E2300"/>
<path d="M1298.85 115.051H1329.6V257.52H1298.85V237.003C1287.27 253.145 1270.65 261.216 1249 261.216C1229.45 261.216 1212.73 253.94 1198.86 239.413C1185 224.885 1178.08 207.176 1178.08 186.262C1178.08 165.348 1185 147.428 1198.86 132.97C1212.73 118.536 1229.42 111.308 1249 111.308C1270.65 111.308 1287.25 119.285 1298.85 135.24V115.004V115.051ZM1221.66 218.92C1230.2 227.575 1240.93 231.88 1253.84 231.88C1266.74 231.88 1277.48 227.552 1286.01 218.92C1294.55 210.287 1298.82 199.409 1298.82 186.285C1298.82 173.161 1294.55 162.306 1286.01 153.651C1277.48 145.018 1266.74 140.69 1253.84 140.69C1240.93 140.69 1230.2 145.018 1221.66 153.651C1213.13 162.306 1208.85 173.161 1208.85 186.285C1208.85 199.409 1213.13 210.264 1221.66 218.92Z" fill="#0E2300"/>
<path d="M1467.23 58.063H1497.98V257.52H1467.23V237.003C1455.65 253.145 1439.03 261.216 1417.38 261.216C1397.83 261.216 1381.11 253.94 1367.24 239.413C1353.38 224.885 1346.46 207.176 1346.46 186.262C1346.46 165.348 1353.38 147.428 1367.24 132.97C1381.11 118.536 1397.8 111.308 1417.38 111.308C1439.03 111.308 1455.63 119.285 1467.23 135.24V58.063ZM1390.04 218.896C1398.58 227.552 1409.31 231.856 1422.22 231.856C1435.12 231.856 1445.86 227.529 1454.39 218.896C1462.93 210.264 1467.2 199.386 1467.2 186.262C1467.2 173.138 1462.93 162.283 1454.39 153.627C1445.86 144.995 1435.12 140.667 1422.22 140.667C1409.31 140.667 1398.58 144.995 1390.04 153.627C1381.51 162.283 1377.23 173.138 1377.23 186.262C1377.23 199.386 1381.51 210.24 1390.04 218.896Z" fill="#0E2300"/>
<path d="M519.31 224.417C519.31 278.855 475.21 322.976 420.798 322.976H196.813C250.945 302.413 287.773 271.346 306.713 230.125C333.136 172.647 318.849 108.641 302.551 65.5959C321.257 60.8235 341.273 62.929 358.81 71.8187C380.79 82.9776 396.433 103.611 401.273 127.777C407.68 126.49 414.227 125.835 420.775 125.835C475.186 125.835 519.287 169.956 519.287 224.417H519.31Z" fill="#2A590B"/>
<path d="M284.873 68.3563C300.516 108.617 315.411 169.933 290.999 222.967C275.613 256.397 246.642 282.528 204.413 301.219C171.256 315.887 135.223 322.976 98.9559 322.976H89.3456C40.5222 322.906 0.724514 283.651 -0.000354473 234.757C-0.327715 212.486 7.48216 191.993 20.7169 176.109C40.5689 152.27 74.4741 145.767 102.136 159.78C111.817 164.669 118.153 168.248 118.34 168.365C121.684 170.26 125.729 169.605 128.301 167.032C128.816 166.517 129.237 165.956 129.611 165.301C131.973 161.324 130.523 156.177 126.478 153.908C86.2824 131.426 74.4273 78.2754 102.463 41.7341C114.506 26.0367 130.99 13.4976 150.959 6.24547C152.082 5.82438 153.251 5.42668 154.42 5.05238C207.499 -12.2357 264.624 16.3049 284.873 68.3563Z" fill="#A9D18B"/>
</svg>
