<svg width="146" height="127" viewBox="0 0 146 127" fill="none" xmlns="http://www.w3.org/2000/svg">
  <path d="M145.31 63.4969C145.31 79.795 133.633 93.5154 118.365 97.1379C106.904 115.044 86.684 127 64.1337 127C28.8123 127 0 98.4642 0 63.4969C0 28.5357 28.8123 0 64.1337 0C86.6902 0 106.904 11.9498 118.365 29.8621C133.633 33.4846 145.31 47.205 145.31 63.4969ZM98.6763 96.0743C85.1695 91.2881 75.4583 78.4811 75.4583 63.5031C75.4583 48.5252 85.1695 35.7182 98.6763 30.932C98.4723 30.7192 98.2745 30.5065 98.0643 30.3001C88.8785 21.247 76.8306 16.2668 64.1337 16.2668C51.4368 16.2668 39.1787 21.2407 30.0609 30.2688C21.042 39.203 16.0721 51.0027 16.0721 63.5031C16.0721 76.0035 21.042 87.8032 30.0609 96.7375C39.1787 105.766 51.2761 110.739 64.1337 110.739C76.9913 110.739 88.8785 105.759 98.0581 96.7124C98.2744 96.4997 98.4661 96.2807 98.6763 96.0743ZM128.669 63.4969C128.669 61.9828 128.471 60.5125 128.113 59.1048C126.543 52.986 121.777 48.0997 115.762 46.229C115.62 46.1852 115.478 46.1414 115.336 46.0976C115.156 46.0476 114.983 45.9975 114.798 45.9537C114.452 45.8661 114.099 45.7848 113.747 45.7223C113.648 45.7035 113.543 45.6847 113.444 45.6722C113.036 45.6034 112.628 45.5408 112.208 45.497C112.189 45.497 112.164 45.497 112.146 45.4908C111.868 45.4657 111.583 45.4407 111.305 45.4282C111.002 45.4157 110.693 45.4032 110.384 45.4032C109.747 45.4032 109.117 45.4344 108.499 45.497C106.663 45.6847 104.926 46.1352 103.319 46.8171C96.7414 49.5637 92.1052 56.0204 92.1052 63.5094C92.1052 70.9984 96.7414 77.455 103.325 80.2016C104.932 80.8836 106.669 81.3341 108.505 81.5217C109.123 81.5843 109.754 81.6156 110.39 81.6156C110.699 81.6156 111.008 81.6156 111.311 81.5906C111.596 81.578 111.874 81.553 112.152 81.528C112.171 81.528 112.195 81.528 112.214 81.528C112.628 81.4842 113.042 81.4216 113.45 81.3528C113.549 81.3341 113.654 81.3215 113.753 81.3028C114.105 81.2339 114.458 81.1589 114.804 81.0713C114.983 81.0275 115.162 80.9774 115.342 80.9274C115.484 80.8836 115.626 80.8398 115.768 80.796C121.777 78.9253 126.549 74.039 128.119 67.9202C128.471 66.4937 128.669 65.0235 128.669 63.5031V63.4969Z" fill="white"/>
</svg>
