<svg width="591" height="557" viewBox="0 0 591 557" fill="none" xmlns="http://www.w3.org/2000/svg">
<path d="M67.4937 118.114C51.1093 118.114 37.2927 112.367 26.0437 100.874C14.7948 89.3802 9.17033 75.4413 9.17033 59.0569C9.17033 42.6726 14.7948 28.7337 26.0437 17.2402C37.2927 5.74674 51.1093 0 67.4937 0C84.1225 0 98.0614 5.74674 109.31 17.2402C120.804 28.7337 126.551 42.6726 126.551 59.0569C126.551 75.4413 120.804 89.3802 109.31 100.874C98.0614 112.367 84.1225 118.114 67.4937 118.114Z" fill="url(#paint0_linear_70_8)"/>
<path d="M67.4937 118.114C51.1093 118.114 37.2927 112.367 26.0437 100.874C14.7948 89.3802 9.17033 75.4413 9.17033 59.0569C9.17033 42.6726 14.7948 28.7337 26.0437 17.2402C37.2927 5.74674 51.1093 0 67.4937 0C84.1225 0 98.0614 5.74674 109.31 17.2402C120.804 28.7337 126.551 42.6726 126.551 59.0569C126.551 75.4413 120.804 89.3802 109.31 100.874C98.0614 112.367 84.1225 118.114 67.4937 118.114Z" fill="url(#paint1_linear_70_8)"/>
<path d="M0 187.075V411.669C2.71444 430.705 6.30282 447.306 11.1061 461.806C27.0437 509.918 56.3569 534.899 111.501 548.983C152.724 559.511 196.505 559.94 237.53 548.663C242.264 547.362 246.777 545.973 251.084 544.493C301.772 527.072 322.822 497.509 337.244 449.345C344.25 425.948 346.747 401.489 347.693 377.084C348.41 351.595 352.141 330.132 358.01 320.595C363.879 311.058 382.487 298.486 400.56 300.787C417.923 300.787 431.25 307.39 440.543 320.595C450.08 333.8 454.849 352.63 454.849 377.084V553.888H590.203V340.036C590.203 289.66 577.364 250.411 551.687 222.289C510.802 184.523 478.928 172.355 400.56 172.402C368.832 171.288 337.161 177.089 310.175 187.869C265.314 205.789 236.904 250.014 226.344 297.154C222.162 315.82 220.036 336.349 218.575 366.08C217.736 400.094 192.138 414.583 174.557 414.935C155.716 415.312 136.236 399.451 135.354 373.985C135.313 372.797 135.312 371.589 135.354 370.36C135.319 368.956 135.319 367.53 135.354 366.08V187.075H0Z" fill="url(#paint2_linear_70_8)"/>
<defs>
<linearGradient id="paint0_linear_70_8" x1="336.5" y1="167.5" x2="671.5" y2="878.5" gradientUnits="userSpaceOnUse">
<stop offset="0.27225" stop-color="#A9A6FF"/>
<stop offset="1" stop-color="white"/>
</linearGradient>
<linearGradient id="paint1_linear_70_8" x1="336.5" y1="167.5" x2="671.5" y2="878.5" gradientUnits="userSpaceOnUse">
<stop offset="0.27225" stop-color="#A9A6FF"/>
<stop offset="1" stop-color="white"/>
</linearGradient>
<linearGradient id="paint2_linear_70_8" x1="336.5" y1="167.5" x2="671.5" y2="878.5" gradientUnits="userSpaceOnUse">
<stop offset="0.27225" stop-color="#A9A6FF"/>
<stop offset="1" stop-color="white"/>
</linearGradient>
</defs>
</svg>
